<?xml version="1.0" encoding="UTF-8"?>
<svg version="1.1" xmlns="http://www.w3.org/2000/svg" width="1758" height="845">
<path d="M0 0 C6.04982881 -0.09084837 12.09220074 -0.05614507 18.14160156 0.05029297 C19.22151367 0.06817871 20.30142578 0.08606445 21.4140625 0.10449219 C92.05318553 1.44228039 162.67524547 11.84439878 230.14160156 33.05029297 C230.80399841 33.25805359 231.46639526 33.46581421 232.14886475 33.67987061 C260.37389894 42.55974183 287.70380816 53.14224717 314.47070312 65.79492188 C316.98524572 66.97680287 319.50976685 68.1330253 322.04003906 69.28076172 C333.95194093 74.72853415 345.28783877 81.04968824 356.62402344 87.60205078 C358.72002391 88.80777952 360.82341403 89.99568452 362.93847656 91.16748047 C378.77256512 99.99365902 394.06610572 109.83662515 408.49951172 120.80517578 C410.11578204 122.03071528 411.74183477 123.24184874 413.37207031 124.44873047 C427.91091455 135.24690883 441.78777711 146.8210011 455.14160156 159.05029297 C455.65223145 159.51580566 456.16286133 159.98131836 456.68896484 160.4609375 C465.59860284 168.58731062 474.42350788 176.73669161 482.27832031 185.90966797 C484.43046934 188.38215783 486.66140875 190.77300654 488.89160156 193.17529297 C494.6743707 199.52585666 499.92464271 206.23247506 505.14160156 213.05029297 C505.62918945 213.6809668 506.11677734 214.31164062 506.61914062 214.96142578 C560.57082585 284.79986131 588.70896759 372.79009594 578.14160156 461.05029297 C571.94846364 508.94610079 555.85919569 553.65938087 531.14160156 595.05029297 C530.38145752 596.32477295 530.38145752 596.32477295 529.60595703 597.625 C522.91647821 608.74073116 515.55374493 619.14710279 507.50732422 629.31884766 C505.81833328 631.46012826 504.16927134 633.63091737 502.51660156 635.80029297 C491.22460685 650.2351335 478.75652213 663.62257714 465.80761719 676.56958008 C464.13739061 678.24200947 462.47537777 679.92232966 460.81347656 681.60302734 C454.95636717 687.48994556 449.01586785 693.01222651 442.49365234 698.16577148 C440.24807051 699.96498741 438.12642739 701.84492437 436.01660156 703.80029297 C429.09697006 710.00706723 421.58498629 715.49486187 414.14160156 721.05029297 C413.06362305 721.85756836 413.06362305 721.85756836 411.96386719 722.68115234 C342.81287062 774.24606441 260.15350766 808.53811791 153.14160156 832.05029297 C152.42311035 832.19102234 151.70461914 832.33175171 150.96435547 832.47674561 C132.70360526 836.02831382 114.36951203 838.66428316 95.89160156 840.80029297 C95.03025604 840.90143402 94.16891052 841.00257507 93.28146362 841.10678101 C65.75937384 844.29908917 38.29075855 845.43702521 10.60988235 845.36835098 C8.28475119 845.36268489 5.95962739 845.35988039 3.63449097 845.35726929 C-20.96340279 845.31718475 -45.38333292 844.66505883 -69.85839844 842.05029297 C-70.67155518 841.9654364 -71.48471191 841.88057983 -72.32250977 841.79315186 C-153.30610362 833.31322531 -232.3585928 812.34810875 -305.85839844 777.05029297 C-306.90157227 776.55062012 -307.94474609 776.05094727 -309.01953125 775.53613281 C-325.09155335 767.78962081 -340.61539183 759.3195791 -355.85839844 750.05029297 C-357.12804443 749.27903076 -357.12804443 749.27903076 -358.42333984 748.4921875 C-383.98065986 732.8690237 -407.91485483 714.95164837 -430.60839844 695.42529297 C-431.22279785 694.89871094 -431.83719727 694.37212891 -432.47021484 693.82958984 C-436.24150457 690.5618848 -439.80506452 687.1512195 -443.30908203 683.59912109 C-445.06534453 681.84341209 -446.89699043 680.21252947 -448.79589844 678.61279297 C-454.97299301 673.2704409 -460.5788855 667.48690215 -465.89355469 661.29248047 C-467.78980303 659.12857083 -469.74157308 657.02485739 -471.70849609 654.92529297 C-478.20702791 647.96209459 -484.08886422 640.62255982 -489.85839844 633.05029297 C-490.34985352 632.41043457 -490.84130859 631.77057617 -491.34765625 631.11132812 C-498.58776579 621.67590563 -505.38105945 612.02424858 -511.85839844 602.05029297 C-511.52839844 601.39029297 -511.19839844 600.73029297 -510.85839844 600.05029297 C-509.21132929 601.98675371 -507.56558325 603.92430825 -505.92089844 605.86279297 C-505.41582764 606.45737305 -504.91075684 607.05195312 -504.39038086 607.66455078 C-501.42475496 611.16585134 -498.52672034 614.70837744 -495.67089844 618.30029297 C-483.77444672 632.90922111 -470.2105367 646.85842465 -455.85839844 659.05029297 C-454.86582031 659.92041016 -453.87324219 660.79052734 -452.85058594 661.68701172 C-391.04160469 715.71577844 -314.80957528 751.82865839 -85.85839844 799.05029297 C-84.82247559 799.12231934 -83.78655273 799.1943457 -82.71923828 799.26855469 C1.18826448 804.81141933 88.63254925 794.51538722 367.14160156 662.05029297 C367.84542969 661.44830078 368.54925781 660.84630859 369.27441406 660.22607422 C382.29922772 648.97241723 394.98061268 637.17014929 406.14160156 624.05029297 C407.00011719 623.08091797 407.85863281 622.11154297 408.74316406 621.11279297 C461.99023481 560.70682961 491.83885489 483.09020347 486.82519531 402.30029297 C486.43589005 397.19207877 485.84712931 392.12388178 485.14160156 387.05029297 C485.0180127 386.15890625 484.89442383 385.26751953 484.76708984 384.34912109 C477.60142027 334.84085859 456.92999004 288.07778764 427.14160156 248.05029297 C426.70750977 247.4645752 426.27341797 246.87885742 425.82617188 246.27539062 C413.41878544 229.61935649 399.53147116 214.37815555 384.89160156 199.67529297 C384.1470874 198.92610596 383.40257324 198.17691895 382.63549805 197.4050293 C377.96607721 192.7490994 373.15275578 188.33457781 368.14160156 184.05029297 C367.12056383 183.16120473 366.09971511 182.27189936 365.07910156 181.38232422 C300.00190844 125.5647849 219.38078753 89.02363184 6.14160156 47.05029297 C5.06445389 46.97930893 5.06445389 46.97930893 3.96554565 46.90689087 C-11.19892529 45.941766 -26.3548628 45.84928093 -41.54589844 45.86279297 C-42.80462769 45.86339722 -44.06335693 45.86400146 -45.36022949 45.86462402 C-64.94274178 45.89008893 -84.34950396 46.2572677 -103.85839844 48.05029297 C-104.91438232 48.14503906 -104.91438232 48.14503906 -105.99169922 48.24169922 C-194.73110033 56.22531017 -281.46272517 79.59497543 -478.23339844 208.30029297 C-479.35717896 209.41706421 -479.35717896 209.41706421 -480.50366211 210.55639648 C-488.28843694 218.36372834 -495.27000221 226.70260406 -502.13964844 235.31396484 C-505.20233897 239.12034697 -508.32831803 242.67112678 -511.85839844 246.05029297 C-505.164544 227.7406323 -488.72450696 210.44137788 -475.85839844 196.05029297 C-474.65570312 194.69871094 -474.65570312 194.69871094 -473.42871094 193.31982422 C-471.95024478 191.66997877 -470.46606722 190.02522946 -468.97558594 188.38623047 C-467.5932391 186.86105813 -466.22281003 185.32497443 -464.86621094 183.77685547 C-460.02902264 178.2825397 -454.96059609 173.04714184 -449.79589844 167.86279297 C-449.13517334 167.19747559 -448.47444824 166.5321582 -447.79370117 165.84667969 C-443.31123267 161.37809567 -438.65241761 157.18014263 -433.85839844 153.05029297 C-432.70198388 152.02851296 -431.54698736 151.00512537 -430.39355469 149.97998047 C-421.91775744 142.49998024 -413.16825746 135.492726 -404.11035156 128.73144531 C-402.58046399 127.58933713 -401.05320642 126.44369924 -399.52832031 125.29492188 C-388.59484866 117.05882317 -377.50396244 109.24664832 -365.85839844 102.05029297 C-364.94880371 101.48729492 -364.03920898 100.92429687 -363.10205078 100.34423828 C-279.90332314 49.10054073 -186.49146885 18.13774209 0 0 Z " fill="#FF931E" transform="translate(1177.8583984375,-0.05029296875)"/>
<path d="M0 0 C72.6 0 145.2 0 220 0 C220 4.29 220 8.58 220 13 C218.05738281 13.03738281 216.11476562 13.07476562 214.11328125 13.11328125 C212.18348797 13.16204859 210.25369605 13.21091977 208.32397461 13.26245117 C206.36658166 13.31115436 204.40886388 13.3462012 202.45117188 13.38085938 C189.04781633 13.75601691 177.25050401 15.22095336 167.22265625 24.67578125 C154.87823259 38.77075888 158.87895518 67.06022194 158.98510742 84.50195312 C158.99519212 86.83300015 159.00464489 89.16404998 159.01351929 91.49510193 C159.02773028 95.20463322 159.04236073 98.9141583 159.05887926 102.62368011 C159.0994725 111.80678074 159.12027545 120.98979089 159.1287384 130.17297363 C159.12938436 130.84078061 159.13003031 131.50858758 159.13069584 132.19663113 C159.13658035 138.38554323 159.14122692 144.5744561 159.14541471 150.76336956 C159.14837082 154.98889433 159.15208499 159.21441791 159.15649414 163.43994141 C159.15721675 164.14145335 159.15793936 164.84296528 159.15868387 165.56573516 C159.17159804 176.93845768 159.22398324 188.31069201 159.28989264 199.68321592 C159.35682642 211.40440886 159.37772264 223.12506473 159.35742456 234.84643316 C159.34811643 241.41009255 159.35987102 247.97214574 159.42339134 254.53553772 C159.48265304 260.7088239 159.48512402 266.87960824 159.44540024 273.0530262 C159.44071018 275.30717871 159.45623292 277.56148643 159.49438286 279.81532097 C159.7292809 294.57098422 157.70003554 303.30541006 147.54970038 314.23245335 C144.90015901 317.25444911 142.71792182 320.59298282 140.5 323.9375 C139.99460693 324.67742187 139.48921387 325.41734375 138.96850586 326.1796875 C138.57542236 326.75976562 138.18233887 327.33984375 137.77734375 327.9375 C134.91754179 332.13634306 131.99709005 336.2906934 129.0625 340.4375 C128.56218262 341.14471191 128.06186523 341.85192383 127.54638672 342.58056641 C126.53365948 344.01127557 125.52063858 345.44177692 124.50732422 346.87207031 C122.04362108 350.35014556 119.58388412 353.83101679 117.125 357.3125 C116.6395874 357.99940918 116.1541748 358.68631836 115.65405273 359.39404297 C112.87303212 363.33325555 110.10334188 367.28011704 107.34375 371.234375 C106.4153833 372.56408325 106.4153833 372.56408325 105.46826172 373.9206543 C104.27591943 375.62957296 103.08475832 377.33931661 101.89501953 379.05004883 C98.36327043 384.11201583 94.7386021 389.08875178 91 394 C78.5838383 388.26243835 70.4793695 370.61327638 65.80078125 358.484375 C58.32164116 337.8839365 54.84608844 316.24736405 54.85523987 294.35205078 C54.8499496 292.83285459 54.8499496 292.83285459 54.84455246 291.28296757 C54.83395668 287.92041108 54.83020046 284.55788301 54.82641602 281.1953125 C54.82010351 278.77134585 54.81333694 276.34738036 54.80615234 273.92341614 C54.79152822 268.71692226 54.77970518 263.51042995 54.77020454 258.30392456 C54.7562537 250.7556791 54.73505389 243.20746626 54.71177601 235.65924442 C54.67393051 223.38270059 54.63895457 211.10615087 54.60717773 198.82958984 C54.60527724 198.09613118 54.60337675 197.36267252 54.60141867 196.60698783 C54.57462562 186.21420693 54.55073601 175.82142137 54.52803367 165.42863083 C54.52643637 164.69759769 54.52483906 163.96656456 54.52319336 163.21337891 C54.52159989 162.48324963 54.52000643 161.75312035 54.51836468 161.00086594 C54.49149089 148.77705763 54.45704921 136.55328421 54.41653961 124.32951355 C54.39192423 116.81192775 54.37350925 109.29437922 54.363384 101.77675968 C54.35504061 95.99839773 54.33647023 90.22010207 54.31432343 84.44177818 C54.30691287 82.08897401 54.30277084 79.73615664 54.30232811 77.38334084 C55.15488292 49.83350895 55.15488292 49.83350895 45.8125 24.75 C33.56400901 12.77369769 16.01118249 13.43845542 0 13 C0 8.71 0 4.42 0 0 Z " fill="#FF931E" transform="translate(0,114)"/>
<path d="M0 0 C80.52 0 161.04 0 244 0 C244 31.35 244 62.7 244 95 C242.02 95 240.04 95 238 95 C237.69932617 94.39752441 237.39865234 93.79504883 237.08886719 93.17431641 C226.11761805 71.32718424 213.71375149 51.91557643 197 34 C196.22914063 33.16339844 195.45828125 32.32679688 194.6640625 31.46484375 C188.38974705 24.8961025 181.67836792 19.77699989 174 15 C172.91332031 14.31744141 172.91332031 14.31744141 171.8046875 13.62109375 C160.05469084 7.37746807 143.22807638 8.71839567 130.328125 8.34106445 C129.30460937 8.30972412 128.28109375 8.27838379 127.2265625 8.24609375 C125.85878662 8.21020142 125.85878662 8.21020142 124.46337891 8.17358398 C122.17815822 8.01255406 120.20567178 7.58444413 118 7 C118.00222061 7.75801407 118.00444122 8.51602814 118.00672913 9.29701233 C118.02714762 16.60127824 118.04217865 23.90552948 118.05181217 31.20981693 C118.05693196 34.9609357 118.06381835 38.71203006 118.07543945 42.46313477 C118.13739012 62.99811833 117.81322114 83.48007064 117 104 C119.37753738 103.93950287 121.74919061 103.85232887 124.125 103.75 C124.79015625 103.73582031 125.4553125 103.72164063 126.140625 103.70703125 C131.20533376 103.45876121 133.97660604 101.96753698 138 99 C140.7734375 98.609375 140.7734375 98.609375 143.375 98.75 C144.24898437 98.78609375 145.12296875 98.8221875 146.0234375 98.859375 C146.67570312 98.90578125 147.32796875 98.9521875 148 99 C148.42539063 97.90945313 148.42539063 97.90945313 148.859375 96.796875 C152.40577996 88.10089572 152.40577996 88.10089572 156 85 C160.69876268 83.96405232 165.20959962 84 170 84 C170.33 83.67 170.66 83.34 171 83 C172.66617115 82.95936168 174.33388095 82.957279 176 83 C177 86.875 177 86.875 177 88 C178.32 88.33 179.64 88.66 181 89 C180.67 89.99 180.34 90.98 180 92 C176.37 92 172.74 92 169 92 C168.67 92.66 168.34 93.32 168 94 C168.99 93.34 169.98 92.68 171 92 C171.99 92 172.98 92 174 92 C174.33 92.99 174.66 93.98 175 95 C173.02 95.99 173.02 95.99 171 97 C170.67 96.67 170.34 96.34 170 96 C168.20969562 95.92710487 166.41666282 95.91633863 164.625 95.9375 C163.64789062 95.94652344 162.67078125 95.95554687 161.6640625 95.96484375 C160.78492188 95.97644531 159.90578125 95.98804688 159 96 C158.01 96 157.02 96 156 96 C156 95.01 156 94.02 156 93 C156.66 92.67 157.32 92.34 158 92 C158.66 92.33 159.32 92.66 160 93 C161.99960012 93.039992 164.00047242 93.04346799 166 93 C166.268125 92.360625 166.53625 91.72125 166.8125 91.0625 C168 89 168 89 171 88 C166.5231372 87.39410879 162.4502744 87.1202946 158 88 C154.8258331 90.91818569 152.89133905 94.14854593 151 98 C154.41664873 98.02908357 157.8332655 98.04682691 161.25 98.0625 C162.21808594 98.07087891 163.18617188 98.07925781 164.18359375 98.08789062 C165.11816406 98.09111328 166.05273438 98.09433594 167.015625 98.09765625 C168.30388184 98.10551147 168.30388184 98.10551147 169.61816406 98.11352539 C171.99148348 98.08209614 171.99148348 98.08209614 174.18652344 97.43139648 C176 97 176 97 178 98 C177.67 99.65 177.34 101.3 177 103 C176.28972656 102.84281494 175.57945312 102.68562988 174.84765625 102.52368164 C169.92400279 101.61822582 164.99490099 101.5656508 160 101.4375 C158.91976563 101.37498047 157.83953125 101.31246094 156.7265625 101.24804688 C153.61757026 101.18471555 151.01085975 101.21141438 148 102 C145.41543152 104.52564357 144.48987876 106.62449344 143 110 C145.97 110 148.94 110 152 110 C152.99 108.02 152.99 108.02 154 106 C156.74447265 105.52951897 159.11964957 105.30364399 161.875 105.25 C162.59558594 105.22035156 163.31617188 105.19070313 164.05859375 105.16015625 C167.3739813 105.03193684 170.6821709 105 174 105 C173.67 106.32 173.34 107.64 173 109 C172.01 108.67 171.02 108.34 170 108 C167.42734182 107.92970879 164.88358569 107.90629168 162.3125 107.9375 C161.61060547 107.94201172 160.90871094 107.94652344 160.18554688 107.95117188 C158.45699462 107.96293073 156.72848635 107.98086546 155 108 C154.67 108.66 154.34 109.32 154 110 C154.5775 109.67 155.155 109.34 155.75 109 C158 108 158 108 162 108 C161.67 109.32 161.34 110.64 161 112 C158.03 111.67 155.06 111.34 152 111 C152 111.66 152 112.32 152 113 C154.29109597 113.08075665 156.58299267 113.13907731 158.875 113.1875 C160.15117188 113.22230469 161.42734375 113.25710938 162.7421875 113.29296875 C164.35480469 113.14794922 164.35480469 113.14794922 166 113 C166.99 111.515 166.99 111.515 168 110 C170.1640625 109.26953125 170.1640625 109.26953125 172.625 108.8125 C173.44226562 108.65394531 174.25953125 108.49539063 175.1015625 108.33203125 C176.04128906 108.16767578 176.04128906 108.16767578 177 108 C177.99 109.485 177.99 109.485 179 111 C175.42355152 112.2380014 172.66305234 111.74926071 169 111 C168.34 112.65 167.68 114.3 167 116 C164.54203147 116.19436491 162.08390706 116.3807742 159.625 116.5625 C158.57699219 116.64661133 158.57699219 116.64661133 157.5078125 116.73242188 C152.2265625 117.11328125 152.2265625 117.11328125 150 116 C149.01 117.32 148.02 118.64 147 120 C147.87360756 121.51305227 148.77477763 123.01021638 149.6875 124.5 C150.43580078 125.75296875 150.43580078 125.75296875 151.19921875 127.03125 C152.83639228 129.25356847 152.83639228 129.25356847 155.45703125 129.28125 C156.29621094 129.1884375 157.13539063 129.095625 158 129 C159.32 129 160.64 129 162 129 C161.67 130.32 161.34 131.64 161 133 C158.61435923 132.42415568 156.33317216 131.77772405 154 131 C154.33 131.66 154.66 132.32 155 133 C156.10859375 133 157.2171875 133 158.359375 133 C163.90625 133 169.453125 133 175 133 C174.67 133.99 174.34 134.98 174 136 C170.7073118 135.91935365 167.41650779 135.80649721 164.125 135.6875 C163.18785156 135.66494141 162.25070312 135.64238281 161.28515625 135.61914062 C160.38925781 135.58369141 159.49335937 135.54824219 158.5703125 135.51171875 C157.74289551 135.48553467 156.91547852 135.45935059 156.06298828 135.43237305 C154 135 154 135 152 132 C149.80545319 131.42006301 149.80545319 131.42006301 147.375 131.3125 C146.14910156 131.21388672 146.14910156 131.21388672 144.8984375 131.11328125 C143.95871094 131.05720703 143.95871094 131.05720703 143 131 C143.3609375 131.48210937 143.721875 131.96421875 144.09375 132.4609375 C144.5578125 133.09257812 145.021875 133.72421875 145.5 134.375 C145.9640625 135.00148438 146.428125 135.62796875 146.90625 136.2734375 C148 138 148 138 148 140 C151.9794733 139.86185777 155.95848415 139.71320326 159.9375 139.5625 C161.07380859 139.52318359 162.21011719 139.48386719 163.38085938 139.44335938 C165.00024414 139.38051758 165.00024414 139.38051758 166.65234375 139.31640625 C167.65257568 139.27974854 168.65280762 139.24309082 169.68334961 139.20532227 C171.96069188 139.25328159 171.96069188 139.25328159 173 138 C174.66617115 137.95936168 176.33388095 137.957279 178 138 C178 139.65 178 141.3 178 143 C176.125 143.625 176.125 143.625 174 144 C173.34 143.34 172.68 142.68 172 142 C169.6754661 141.62948007 169.6754661 141.62948007 166.9921875 141.5859375 C165.51298828 141.52792969 165.51298828 141.52792969 164.00390625 141.46875 C162.97136719 141.4378125 161.93882812 141.406875 160.875 141.375 C159.31458984 141.31699219 159.31458984 141.31699219 157.72265625 141.2578125 C155.14861689 141.16335234 152.57458845 141.07778786 150 141 C152.2444012 145.43599295 154.53540876 149.40942363 158 153 C162.17885558 154.03961773 165.78673994 153.75838681 170 153 C169.34 152.67 168.68 152.34 168 152 C167.67 151.01 167.34 150.02 167 149 C163.7 149 160.4 149 157 149 C157 147.68 157 146.36 157 145 C162.94 145 168.88 145 175 145 C174.67 146.32 174.34 147.64 174 149 C172.35 148.67 170.7 148.34 169 148 C169 148.66 169 149.32 169 150 C172.63 149.67 176.26 149.34 180 149 C180 150.32 180 151.64 180 153 C178.68 153 177.36 153 176 153 C175.67 154.65 175.34 156.3 175 158 C159.68157464 157.93390108 159.68157464 157.93390108 155.28027344 154.75976562 C151.68593339 151.04148281 149.3006085 146.601217 147 142 C144.84207531 141.68313671 144.84207531 141.68313671 142.3125 141.625 C138.64205033 141.34623167 137.29837401 141.21699928 134.25 139 C129.64213208 135.81930447 129.64213208 135.81930447 117 136 C117.33 165.04 117.66 194.08 118 224 C161.8947915 225.52756695 161.8947915 225.52756695 197 206 C197.5369751 205.48421387 198.0739502 204.96842773 198.62719727 204.43701172 C202.94335315 200.24043507 206.69548442 195.80707282 210.3125 191 C211.15433838 189.8847998 211.15433838 189.8847998 212.01318359 188.74707031 C224.78833432 171.68205521 235.47751919 153.66697187 242.9765625 133.640625 C244 131 244 131 245 130 C246.98 130 248.96 130 251 130 C251 163.66 251 197.32 251 232 C168.5 232 86 232 1 232 C1 230.02 1 228.04 1 226 C1.72590332 225.92483154 2.45180664 225.84966309 3.19970703 225.7722168 C6.50953076 225.42263219 9.81714657 225.05524256 13.125 224.6875 C14.26710938 224.56955078 15.40921875 224.45160156 16.5859375 224.33007812 C25.96098535 223.32189463 25.96098535 223.32189463 33.75 218.3125 C42.34396698 202.41366109 38.14885327 177.21800252 38.1343255 159.54677582 C38.13176073 155.44150225 38.13415074 151.33623071 38.13571167 147.23095703 C38.1375215 140.34211825 38.13515839 133.45329026 38.13037109 126.56445312 C38.12493078 118.64542082 38.12669428 110.72641427 38.1321975 102.80738258 C38.13676264 95.95927017 38.13736265 89.11116543 38.13475883 82.26305199 C38.13321465 78.19442702 38.13295044 74.12581409 38.13629532 70.05718994 C40.62301886 39.30885353 40.62301886 39.30885353 31.4375 12.0625 C22.97927469 6.10283035 9.91333067 7.41035574 0 7 C0 4.69 0 2.38 0 0 Z M136.3125 102.96875 C132.23104223 105.47153071 129.30599087 105.65688807 124.625 105.75 C123.52091797 105.79447266 123.52091797 105.79447266 122.39453125 105.83984375 C120.5969257 105.90988033 118.7984621 105.95728119 117 106 C117 107.32 117 108.64 117 110 C120.72835701 110.20382103 124.45528129 110.32779471 128.1875 110.4375 C129.24259766 110.49615234 130.29769531 110.55480469 131.38476562 110.61523438 C137.01501551 110.89728549 137.01501551 110.89728549 141.85400391 108.48095703 C143.67035545 106.00982197 145 104.11471677 145 101 C141.15864361 100.63415653 139.48510673 100.64463112 136.3125 102.96875 Z M117 111 C117 111.99 117 112.98 117 114 C120.29150125 114.08685287 123.5827096 114.14033895 126.875 114.1875 C128.28072266 114.22520508 128.28072266 114.22520508 129.71484375 114.26367188 C130.61074219 114.27333984 131.50664063 114.28300781 132.4296875 114.29296875 C133.67081299 114.31653442 133.67081299 114.31653442 134.93701172 114.34057617 C135.61779785 114.22818604 136.29858398 114.1157959 137 114 C137.66 113.01 138.32 112.02 139 111 C131.74 111 124.48 111 117 111 Z M141 111 C140.55462891 111.65548828 140.10925781 112.31097656 139.65039062 112.98632812 C138 115 138 115 135.73168945 115.54589844 C134.43557739 115.57731934 134.43557739 115.57731934 133.11328125 115.609375 C132.17548828 115.64160156 131.23769531 115.67382812 130.27148438 115.70703125 C129.29501953 115.72121094 128.31855469 115.73539062 127.3125 115.75 C126.32443359 115.77964844 125.33636719 115.80929687 124.31835938 115.83984375 C121.87882404 115.91055492 119.44024475 115.96324265 117 116 C117 116.66 117 117.32 117 118 C126.9 118 136.8 118 147 118 C148.32 115.69 149.64 113.38 151 111 C149.3973218 110.89175157 147.79254252 110.81429355 146.1875 110.75 C144.84751953 110.68039062 144.84751953 110.68039062 143.48046875 110.609375 C142.25263672 110.80273438 142.25263672 110.80273438 141 111 Z M117 122 C117 122.99 117 123.98 117 125 C124.26 125 131.52 125 139 125 C139.66 126.65 140.32 128.3 141 130 C144.3 130 147.6 130 151 130 C149.20250999 125.45545315 149.20250999 125.45545315 146 122 C141.06462842 120.95951624 136.19475388 121.24655895 131.1875 121.5 C129.81325414 121.54015706 128.43889614 121.57665406 127.06445312 121.609375 C123.70678525 121.70362533 120.35481899 121.83509728 117 122 Z M117 127 C117 127.99 117 128.98 117 130 C124.26 130 131.52 130 139 130 C138.34 129.01 137.68 128.02 137 127 C134.87305335 126.58472876 134.87305335 126.58472876 132.4296875 126.70703125 C131.08583984 126.7215332 131.08583984 126.7215332 129.71484375 126.73632812 C128.77769531 126.76146484 127.84054687 126.78660156 126.875 126.8125 C125.45767578 126.83280273 125.45767578 126.83280273 124.01171875 126.85351562 C121.67391221 126.88893694 119.33723763 126.93832729 117 127 Z M117 131 C117 132.32 117 133.64 117 135 C118.75376953 135.03867187 118.75376953 135.03867187 120.54296875 135.078125 C122.09118226 135.13442367 123.6393579 135.19177062 125.1875 135.25 C125.95642578 135.26417969 126.72535156 135.27835938 127.51757812 135.29296875 C132.70032924 135.51540442 135.0431796 136.43886164 139 140 C142.70940775 140.33465889 142.70940775 140.33465889 146 140 C144.41236704 136.5428058 142.72626194 133.67700756 140 131 C135.99543164 129.87827837 132.24469223 130.14069951 128.125 130.4375 C127.05507812 130.47810547 125.98515625 130.51871094 124.8828125 130.56054688 C122.25052073 130.6663086 119.62762763 130.81385782 117 131 Z " fill="#FF931E" transform="translate(1025,324)"/>
<path d="M0 0 C0.94074875 0.00022659 1.8814975 0.00045319 2.85075378 0.00068665 C3.86333755 0.0161705 4.87592133 0.03165436 5.91918945 0.04760742 C6.95815872 0.05185226 7.99712799 0.05609711 9.06758118 0.06047058 C12.38947346 0.07727769 15.71076145 0.11493421 19.0324707 0.15307617 C21.28311299 0.16812036 23.53376478 0.18180922 25.78442383 0.1940918 C31.30483934 0.22718797 36.82480253 0.27898478 42.3449707 0.34057617 C42.3449707 4.63057617 42.3449707 8.92057617 42.3449707 13.34057617 C41.04043945 13.37795898 39.7359082 13.4153418 38.3918457 13.45385742 C22.69557844 13.99961844 6.45084548 15.29783125 -5.5925293 26.71557617 C-14.0851858 36.17705514 -17.53623494 46.88565184 -18.75036621 59.39382935 C-18.87796192 60.70183618 -18.87796192 60.70183618 -19.00813532 62.0362674 C-19.91355739 72.10024035 -19.94811902 82.14139836 -19.94213867 92.23852539 C-19.94818214 94.35041055 -19.95511115 96.46229333 -19.96284485 98.57417297 C-19.97760016 103.08149787 -19.98644927 107.58877952 -19.99055481 112.09612656 C-19.99734967 119.2554629 -20.01919957 126.41470825 -20.04309082 133.57400513 C-20.09179833 148.78784061 -20.1242448 164.00169548 -20.1550293 179.21557617 C-20.18826736 195.61478482 -20.22457684 212.01395723 -20.27916002 228.41311085 C-20.29846229 234.34943732 -20.31383781 240.28571624 -20.31950378 246.2220726 C-20.44003962 367.70549865 -20.44003962 367.70549865 -60.9675293 409.96557617 C-82.25365152 430.6456878 -108.1607051 443.55047739 -136.9675293 450.02807617 C-138.29905029 450.33201294 -138.29905029 450.33201294 -139.6574707 450.64208984 C-156.74969868 454.29817323 -173.80545763 454.71252416 -191.2175293 454.65307617 C-192.87587296 454.65034195 -192.87587296 454.65034195 -194.56771851 454.64755249 C-210.42200833 454.60349246 -226.04466742 454.40456899 -241.6550293 451.34057617 C-242.56833008 451.16365234 -243.48163086 450.98672852 -244.42260742 450.80444336 C-274.42420988 444.7686797 -299.64115283 431.54808354 -321.6550293 410.34057617 C-318.82080442 405.19772211 -315.70363941 400.41972483 -312.2800293 395.65307617 C-311.20927139 394.14948702 -310.13897823 392.64556681 -309.0690918 391.14135742 C-308.2323291 389.96694092 -308.2323291 389.96694092 -307.37866211 388.76879883 C-304.44888761 384.64138564 -301.55339194 380.49007671 -298.6550293 376.34057617 C-289.69659349 363.53353064 -280.7037939 350.75689466 -271.53222656 338.10131836 C-267.14675578 332.04245296 -262.82230528 325.94212485 -258.52416992 319.82104492 C-257.62193215 318.5371393 -256.71750766 317.2547659 -255.81030273 315.97436523 C-254.84592905 314.61054683 -253.89350979 313.23828537 -252.9440918 311.86401367 C-252.51870117 311.3612793 -252.09331055 310.85854492 -251.6550293 310.34057617 C-250.9950293 310.34057617 -250.3350293 310.34057617 -249.6550293 310.34057617 C-249.61015381 311.23550781 -249.56527832 312.13043945 -249.51904297 313.05249023 C-247.95819018 359.84170405 -247.95819018 359.84170405 -223.6550293 398.34057617 C-202.09462582 417.33145211 -175.43032626 420.55844634 -147.6550293 419.34057617 C-121.16567705 417.16516914 -95.12389524 405.80808976 -77.6550293 385.34057617 C-60.41170964 363.93220346 -54.30429463 339.38123426 -51.5300293 312.46557617 C-51.41667236 311.37273315 -51.41667236 311.37273315 -51.30102539 310.2578125 C-49.77114906 294.10086795 -49.5076751 277.93255289 -49.52563477 261.71704102 C-49.52427574 259.62362132 -49.52249302 257.53020186 -49.52032471 255.43678284 C-49.51581048 249.81090683 -49.51751476 244.18504939 -49.52070379 238.55917311 C-49.52325807 232.63748091 -49.52088145 226.71579017 -49.51931763 220.7940979 C-49.51750511 210.85711383 -49.51987838 200.92013723 -49.5246582 190.9831543 C-49.53010205 179.53429961 -49.52833356 168.08546274 -49.5228318 156.63660848 C-49.51827804 146.76088064 -49.51766108 136.88515813 -49.52027047 127.00942957 C-49.52182043 121.13107361 -49.52206235 115.25272599 -49.51873398 109.37437057 C-49.51582213 103.84695295 -49.51789119 98.31955806 -49.52362823 92.79214287 C-49.52493806 90.77712097 -49.5245924 88.76209713 -49.52236557 86.74707603 C-49.5195832 83.97111289 -49.52174819 81.19523779 -49.52804565 78.41928101 C-49.53085529 77.12900737 -49.53085529 77.12900737 -49.53372169 75.81266761 C-49.57805723 69.40625471 -49.89728731 63.03711809 -50.50020874 56.65812051 C-50.80788695 52.8294668 -50.73237505 50.37827361 -48.4440918 47.22338867 C-46.93505859 45.78466797 -46.93505859 45.78466797 -45.2800293 44.46557617 C-44.15100744 43.41510635 -43.02472737 42.36168245 -41.90112305 41.30541992 C-41.34279785 40.8063916 -40.78447266 40.30736328 -40.20922852 39.79321289 C-37.99900897 37.72742491 -36.19204622 35.41718345 -34.3425293 33.02807617 C-29.88817306 27.47438156 -25.05054186 22.32702154 -20.14599609 17.17333984 C-16.401491 13.23434078 -12.7651967 9.22866228 -9.2199707 5.10888672 C-8.70354004 4.52534424 -8.18710937 3.94180176 -7.6550293 3.34057617 C-7.22376236 2.81612915 -6.79249542 2.29168213 -6.34815979 1.75134277 C-4.12335958 -0.10242682 -2.87140247 -0.02309439 0 0 Z " fill="#FF931E" transform="translate(419.655029296875,114.659423828125)"/>
<path d="M0 0 C48.18 0 96.36 0 146 0 C146 1.98 146 3.96 146 6 C142.62880081 7.12373306 139.79795802 7.21511348 136.25 7.375 C130.78458582 7.7201245 126.78776843 8.37812681 122 11 C120.24620785 23.52708681 131.11796125 36.82081506 137.5 47.125 C138.95005978 49.48045664 140.39702288 51.83780788 141.84375 54.1953125 C142.19195801 54.76147278 142.54016602 55.32763306 142.89892578 55.91094971 C146.36010998 61.55320683 149.69345185 67.26594245 153 73 C165.62411282 60.61993857 191.83131461 34.42215701 192.25 16 C192.22267444 12.80105832 192.22267444 12.80105832 190.625 10.0625 C187.81027014 8.22209971 185.75486139 7.78052482 182.4296875 7.46484375 C181.08583984 7.33432617 181.08583984 7.33432617 179.71484375 7.20117188 C178.77769531 7.11416016 177.84054687 7.02714844 176.875 6.9375 C175.93011719 6.84662109 174.98523438 6.75574219 174.01171875 6.66210938 C171.67479389 6.43785901 169.33757884 6.21730943 167 6 C167 4.02 167 2.04 167 0 C194.06 0 221.12 0 249 0 C249 1.98 249 3.96 249 6 C246.04569131 6.98476956 243.33644274 7.30406461 240.25 7.59448242 C222.07497447 9.35558244 210.64798733 16.60431811 198.88671875 30.49609375 C197.38652692 32.33203011 195.89466839 34.17479974 194.41015625 36.0234375 C191.86576978 39.16577541 189.25280208 42.24016411 186.625 45.3125 C182.3440053 50.34051893 178.18964946 55.45359163 174.15405273 60.6809082 C171.76433344 63.77594605 169.33115056 66.81006804 166.79296875 69.78515625 C166.27347656 70.40720947 165.75398437 71.0292627 165.21875 71.67016602 C164.22069083 72.86284035 163.20691973 74.04259313 162.17578125 75.20678711 C160.61442511 77.00595322 160.61442511 77.00595322 159 80 C159.64831938 86.05098085 164.39549863 91.70975428 167.625 96.75 C168.98922759 98.90434895 170.3524752 101.05931871 171.71484375 103.21484375 C172.42108887 104.32972168 173.12733398 105.44459961 173.85498047 106.59326172 C177.35275086 112.13316673 180.76496122 117.72594556 184.1875 123.3125 C189.23864519 131.54081249 194.32908871 139.74083981 199.50170898 147.89331055 C202.8127434 153.11286941 206.09456438 158.3498139 209.36254883 163.59643555 C212.56599842 168.73662339 215.78253574 173.86857717 219 179 C219.68739258 180.09876465 220.37478516 181.1975293 221.08300781 182.32958984 C223.1722368 185.66240752 225.27224806 188.98820144 227.375 192.3125 C228.00438477 193.31941895 228.63376953 194.32633789 229.28222656 195.36376953 C237.5776113 208.418908 245.49535888 219.93488329 261 224 C263.96986975 224.41258516 266.88892303 224.67579647 269.8828125 224.82421875 C272 225 272 225 273 226 C273 227.98 273 229.96 273 232 C224.49 232 175.98 232 126 232 C126 230.02 126 228.04 126 226 C129.73880993 224.13059503 134.2972901 224.64330104 138.421875 224.4765625 C142.24965927 223.96674844 144.7252529 223.0203849 148 221 C150.28560293 217.57159561 150.11608724 216.0568651 149.49023438 212.08740234 C148.73123028 208.85558712 147.35258445 206.21129245 145.75 203.3125 C145.40211426 202.68150391 145.05422852 202.05050781 144.69580078 201.40039062 C140.55168709 194.00234085 136.0243162 186.82857626 131.5234375 179.64453125 C127.20073748 172.74207694 122.98099373 165.77776817 118.75732422 158.81445312 C118.20834473 157.91017578 117.65936523 157.00589844 117.09375 156.07421875 C116.31257812 154.78523682 116.31257812 154.78523682 115.515625 153.47021484 C113.67726443 150.47399509 111.78280049 147.51566586 109.86523438 144.56958008 C109 143 109 143 109 141 C105.16813393 144.69303034 101.79674682 148.57640587 98.5 152.75 C97.98155518 153.40266846 97.46311035 154.05533691 96.92895508 154.7277832 C90.85121492 162.4076627 84.90977571 170.19053685 79 178 C78.36030273 178.84385254 77.72060547 179.68770508 77.06152344 180.55712891 C75.05838157 183.20215346 73.05968804 185.85047773 71.0625 188.5 C70.44785889 189.31235107 69.83321777 190.12470215 69.19995117 190.96166992 C59.35425116 202.85353591 59.35425116 202.85353591 56.1875 217.25 C56.59515019 221.23256629 56.59515019 221.23256629 60 223 C62.49633477 223.44185936 62.49633477 223.44185936 65.2890625 223.59765625 C66.31257812 223.67693359 67.33609375 223.75621094 68.390625 223.83789062 C69.45796875 223.91201172 70.5253125 223.98613281 71.625 224.0625 C73.74247746 224.21610598 75.85968819 224.37345057 77.9765625 224.53515625 C78.91580566 224.600979 79.85504883 224.66680176 80.82275391 224.73461914 C83 225 83 225 84 226 C84 227.98 84 229.96 84 232 C54.96 232 25.92 232 -4 232 C-4 230.02 -4 228.04 -4 226 C-3.32533691 225.93006836 -2.65067383 225.86013672 -1.95556641 225.78808594 C1.15640734 225.45692295 4.26549903 225.10360093 7.375 224.75 C8.43589844 224.64042969 9.49679687 224.53085937 10.58984375 224.41796875 C30.14174771 222.13891246 41.61826106 210.87330022 53.5234375 196.04296875 C56.24418976 192.69996243 59.05160714 189.44359328 61.875 186.1875 C66.38554785 180.96893845 70.69840033 175.63024908 74.92529297 170.18041992 C78.02266122 166.20166412 81.22058017 162.32967759 84.5 158.5 C88.43136503 153.89381672 92.28909034 149.2367272 96.0625 144.5 C96.52785156 143.92443359 96.99320313 143.34886719 97.47265625 142.75585938 C101.17010759 138.30010036 101.17010759 138.30010036 103 133 C101.74634871 129.9714839 99.91524875 127.37926642 98.0625 124.6875 C96.93236213 122.97477038 95.80351473 121.26118873 94.67578125 119.546875 C94.07330566 118.64259766 93.47083008 117.73832031 92.85009766 116.80664062 C89.72900953 112.07187828 86.74458302 107.25287809 83.75 102.4375 C83.12577148 101.43847656 82.50154297 100.43945312 81.85839844 99.41015625 C77.14146664 91.85732178 72.47183723 84.27596088 67.8125 76.6875 C61.74947931 66.81641547 55.63954877 56.97847122 49.41015625 47.21142578 C48.45002483 45.70573492 47.49176369 44.19885017 46.53515625 42.69091797 C33.09312324 20.29323868 33.09312324 20.29323868 11 8 C7.99000555 7.51322048 5.04410243 7.24159543 2 7 C1.34 6.67 0.68 6.34 0 6 C0 4.02 0 2.04 0 0 Z " fill="#FF931E" transform="translate(490,324)"/>
<path d="M0 0 C49.17 0 98.34 0 149 0 C149 1.98 149 3.96 149 6 C146.57655749 7.21172126 144.75982507 7.25140642 142.0546875 7.4296875 C141.05953125 7.50316406 140.064375 7.57664062 139.0390625 7.65234375 C136.95354755 7.79910221 134.86760116 7.93987038 132.78125 8.07421875 C126.65021706 8.53916855 121.57478359 9.33828252 116 12 C109.01926017 22.58370232 110.85013604 38.82396092 110.85473633 50.9934082 C110.85137772 52.3029245 110.8480191 53.6124408 110.84455872 54.9616394 C110.83584342 58.50523997 110.83338601 62.04881629 110.83274293 65.59242654 C110.83202548 67.81868688 110.82987828 70.04494132 110.82724571 72.27120018 C110.81803484 80.07264971 110.81390561 87.87408232 110.81469727 95.67553711 C110.81529749 102.89243624 110.80474541 110.1092605 110.7889536 117.3261407 C110.77578777 123.57041305 110.7705171 129.81466118 110.77115268 136.05894727 C110.77140494 139.7671573 110.76870648 143.47530056 110.75797462 147.18349648 C109.46228443 183.23452918 109.46228443 183.23452918 125.0703125 214.265625 C133.96223461 222.87071091 144.77480897 225.25625399 156.84643555 225.2487793 C172.07296008 224.99454664 184.60045303 220.95538937 195.6796875 210.44921875 C211.6082037 193.63578498 216.13996575 169.7594042 216.16113281 147.33862305 C216.16609772 146.07594604 216.17106262 144.81326904 216.17617798 143.5123291 C216.18922949 140.06383553 216.19573241 136.61536137 216.20018864 133.16684699 C216.20313048 131.00769593 216.20723728 128.84855005 216.21169281 126.68940163 C216.22534723 119.92016492 216.23502452 113.1509402 216.2388947 106.38169068 C216.24337372 98.59268472 216.26092295 90.8038544 216.2898953 83.01490182 C216.31156979 76.9764342 216.32160201 70.9380158 216.32293582 64.89950973 C216.32397952 61.30094075 216.3297941 57.70253733 216.34775543 54.10400963 C216.36742415 50.08575283 216.36292428 46.06786032 216.35644531 42.04956055 C216.37026749 40.28256554 216.37026749 40.28256554 216.3843689 38.47987366 C216.34280329 30.22605658 215.59482684 20.55945216 210 14 C201.41510124 7.82147438 189.87030054 7.84926634 179.71484375 7.24609375 C177 7 177 7 174 6 C174 4.02 174 2.04 174 0 C205.02 0 236.04 0 268 0 C268 1.98 268 3.96 268 6 C265.35233421 6.88255526 263.39307292 7.21633792 260.6484375 7.4296875 C259.37033203 7.53990234 259.37033203 7.53990234 258.06640625 7.65234375 C256.29604591 7.79880317 254.5252055 7.93958945 252.75390625 8.07421875 C245.35903035 8.72833821 237.92992733 9.57957987 232.625 15.1875 C225.25038393 24.95222709 225.85408241 36.92603099 225.84228516 48.6340332 C225.83720444 49.75268265 225.83212372 50.87133209 225.82688904 52.02388 C225.81624245 54.43876188 225.80760022 56.85365328 225.80076981 59.26854897 C225.78887817 63.110332 225.76939705 66.95200772 225.74765015 70.79374695 C225.68639789 81.71247681 225.63196674 92.6311951 225.59863281 103.55004883 C225.57810119 110.24663862 225.54204807 116.94300464 225.49787521 123.63948631 C225.48386045 126.17036782 225.47502623 128.70128425 225.47182083 131.23220253 C225.43268465 159.18791197 224.16676202 192.62399497 204.95703125 215.0859375 C185.08856858 234.51816645 159.77686917 235.62771507 133.66430664 235.40454102 C121.91956415 235.24475464 110.46907915 234.70864352 99 232 C98.24750977 231.83371094 97.49501953 231.66742187 96.71972656 231.49609375 C74.3936619 226.45803486 53.04079525 215.02797151 39.7578125 195.91015625 C34.90820404 187.88136002 31.89813039 179.74900949 31.84851074 170.35003662 C31.84016708 169.22340607 31.83182343 168.09677551 31.82322693 166.93600464 C31.81904251 165.70898834 31.81485809 164.48197205 31.81054688 163.21777344 C31.79781488 161.22213569 31.78508277 159.22649795 31.7723465 157.23086023 C31.75961713 155.08868327 31.7492865 152.94650661 31.73963928 150.80431366 C31.71932696 146.32134894 31.69167933 141.83844746 31.66296387 137.35552979 C31.60292886 127.8203832 31.55119935 118.28519743 31.5 108.75 C31.44475971 98.49485207 31.38781218 88.23972375 31.32245111 77.98463464 C31.29897739 74.26684177 31.27738801 70.54905857 31.26036072 66.83123016 C33.51383933 37.64162682 33.51383933 37.64162682 24.875 11.5625 C18.49006956 8.09242911 11.42912792 7.73843498 4.28515625 7.24609375 C2 7 2 7 0 6 C0 4.02 0 2.04 0 0 Z " fill="#FF931E" transform="translate(753,324)"/>
<path d="M0 0 C30.03 0 60.06 0 91 0 C89.38306857 3.23386286 88.37050879 4.89609296 85.98828125 7.390625 C85.39901855 8.01332275 84.80975586 8.63602051 84.20263672 9.27758789 C83.5788916 9.92848389 82.95514648 10.57937988 82.3125 11.25 C81.02912618 12.60729641 79.74656335 13.96536013 78.46484375 15.32421875 C77.5519458 16.28980713 77.5519458 16.28980713 76.62060547 17.27490234 C72.62125119 21.532124 68.85629374 25.98358546 65.09375 30.44921875 C64.56475098 31.07368896 64.03575195 31.69815918 63.49072266 32.34155273 C62.4392349 33.58354122 61.39180656 34.82898171 60.34912109 36.07836914 C57.4767204 39.4698841 54.59603756 42.33919565 51 45 C50.78085937 44.24976563 50.56171875 43.49953125 50.3359375 42.7265625 C47.31430028 32.97379847 43.960451 23.68031799 34.80078125 18.24609375 C25.24445327 13.99439413 15.06101571 12.58899265 4.6953125 12.17578125 C2 12 2 12 0 11 C0 7.37 0 3.74 0 0 Z " fill="#FF931E" transform="translate(312,112)"/>
<path d="M0 0 C1.65 0 3.3 0 5 0 C5.625 1.875 5.625 1.875 6 4 C5.34 4.66 4.68 5.32 4 6 C2.65403845 5.72201368 1.32171354 5.37677873 0 5 C-1.80581755 4.92008896 -3.61431809 4.89230177 -5.421875 4.90234375 C-6.44667969 4.90556641 -7.47148438 4.90878906 -8.52734375 4.91210938 C-10.12255859 4.92467773 -10.12255859 4.92467773 -11.75 4.9375 C-12.82894531 4.94201172 -13.90789062 4.94652344 -15.01953125 4.95117188 C-17.67974383 4.96294273 -20.33984365 4.97938601 -23 5 C-23 3.68 -23 2.36 -23 1 C-15.41 1.33 -7.82 1.66 0 2 C0 1.34 0 0.68 0 0 Z " fill="#FF931E" transform="translate(1198,441)"/>
<path d="M0 0 C4.95 0.33 9.9 0.66 15 1 C15.66 2.65 16.32 4.3 17 6 C19.31 5.34 21.62 4.68 24 4 C24.66 5.32 25.32 6.64 26 8 C21.91621923 8 18.87684087 7.19287411 15 6 C14.67 4.68 14.34 3.36 14 2 C12.41632253 2.14204741 10.83306682 2.28880153 9.25 2.4375 C8.36828125 2.51871094 7.4865625 2.59992188 6.578125 2.68359375 C4.30649548 2.96238465 2.20148177 3.38790577 0 4 C0 2.68 0 1.36 0 0 Z " fill="#FF931E" transform="translate(1177,447)"/>
</svg>
